<svg width="64" height="64" viewBox="0 0 64 64" fill="none" xmlns="http://www.w3.org/2000/svg">
<g clip-path="url(#clip0)">
<rect width="64" height="64" fill="white"/>
<rect width="64" height="64" fill="#333333"/>
<path d="M22.4893 8.23952C18.6646 8.23952 15.7032 9.64471 13.605 12.4551C11.5069 15.2442 10.4578 19.1404 10.4578 24.1437C10.4578 34.5549 14.4683 39.7605 22.4893 39.7605C25.855 39.7605 29.9311 38.9408 34.7174 37.3014V45.6048C30.7835 47.2016 26.3905 48 21.5386 48C14.5667 48 9.23394 45.9454 5.54037 41.8363C1.84679 37.7059 0 31.7871 0 24.0798C0 19.2255 0.907003 14.978 2.72101 11.3373C4.53501 7.67532 7.13582 4.87558 10.5234 2.93812C13.9329 0.979375 17.9215 0 22.4893 0C27.1445 0 31.8216 1.09647 36.5205 3.28942L33.2422 11.3373C31.45 10.507 29.647 9.7831 27.833 9.16567C26.019 8.54824 24.2377 8.23952 22.4893 8.23952Z" transform="translate(33.5205 8) scale(-1 1)" fill="white"/>
<path d="M22.4893 8.23952C18.6646 8.23952 15.7032 9.64471 13.605 12.4551C11.5069 15.2442 10.4578 19.1404 10.4578 24.1437C10.4578 34.5549 14.4683 39.7605 22.4893 39.7605C25.855 39.7605 29.9311 38.9408 34.7174 37.3014V45.6048C30.7835 47.2016 26.3905 48 21.5386 48C14.5667 48 9.23394 45.9454 5.54037 41.8363C1.84679 37.7059 0 31.7871 0 24.0798C0 19.2255 0.907003 14.978 2.72101 11.3373C4.53501 7.67532 7.13582 4.87558 10.5234 2.93812C13.9329 0.979375 17.9215 0 22.4893 0C27.1445 0 31.8216 1.09647 36.5205 3.28942L33.2422 11.3373C31.45 10.507 29.647 9.7831 27.833 9.16567C26.019 8.54824 24.2377 8.23952 22.4893 8.23952Z" transform="translate(30.4795 8)" fill="white"/>
</g>
<defs>
<clipPath id="clip0">
<rect width="64" height="64" fill="white"/>
</clipPath>
</defs>
</svg>
